<?xml version="1.0" standalone="no"?>
<!DOCTYPE svg PUBLIC "-//W3C//DTD SVG 20010904//EN"
 "http://www.w3.org/TR/2001/REC-SVG-20010904/DTD/svg10.dtd">
<svg version="1.0" xmlns="http://www.w3.org/2000/svg"
 width="128.000000pt" height="128.000000pt" viewBox="0 0 128.000000 128.000000"
 preserveAspectRatio="xMidYMid meet">
<metadata>
Created by potrace 1.14, written by Peter Selinger 2001-2017
</metadata>
<g transform="translate(0.000000,128.000000) scale(0.100000,-0.100000)"
fill="#000000" stroke="none">
<path d="M0 640 l0 -640 640 0 640 0 0 640 0 640 -640 0 -640 0 0 -640z m270
190 c0 -11 5 -20 10 -20 6 0 10 -7 10 -16 0 -8 5 -12 10 -9 6 3 10 18 10 31 0
27 24 29 26 3 2 -35 5 -40 14 -34 6 3 10 15 10 26 0 12 5 19 13 16 6 -2 11
-10 9 -17 -1 -7 2 -18 8 -25 15 -18 9 -175 -6 -175 -12 0 -24 44 -24 89 -1 23
-2 24 -11 7 -6 -10 -9 -35 -6 -55 4 -33 2 -37 -20 -39 -24 -2 -25 -1 -18 47 4
30 2 57 -4 68 -8 14 -10 2 -11 -53 0 -68 -1 -71 -22 -67 -21 4 -23 9 -20 59 3
35 0 54 -7 54 -7 0 -9 9 -6 23 3 12 8 40 10 62 2 22 4 41 4 43 1 1 6 2 11 2 6
0 10 -9 10 -20z m-54 -12 c8 -21 13 -208 6 -208 -1 0 -7 10 -12 23 l-9 22 0
-22 c-1 -36 -16 -27 -17 10 -1 17 -2 46 -3 62 -2 36 3 72 12 81 4 4 4 18 1 30
-8 31 12 32 22 2z m414 -30 c34 -131 32 -125 41 -98 4 14 15 51 24 83 9 31 22
57 29 57 7 0 20 -26 30 -57 37 -117 37 -117 55 -28 l16 80 62 3 c68 3 103 -9
103 -36 1 -14 2 -14 12 3 6 11 16 23 22 27 17 12 96 9 96 -2 0 -7 -13 -8 -34
-5 -28 6 -36 3 -45 -13 -11 -21 5 -40 61 -75 74 -46 22 -129 -69 -112 -49 9
-40 23 15 22 41 -2 47 1 50 20 2 14 -6 28 -23 40 -14 10 -39 29 -56 41 -23 19
-29 21 -29 8 0 -19 -30 -36 -64 -36 -24 0 -26 -3 -26 -45 0 -38 -3 -45 -20
-45 -19 0 -20 7 -20 102 0 56 -3 98 -7 94 -5 -4 -17 -48 -28 -99 -27 -124 -43
-127 -81 -15 l-27 82 -22 -78 c-13 -42 -25 -80 -29 -83 -17 -17 -35 14 -51 89
-9 45 -22 89 -27 96 -14 16 -63 15 -77 -2 -17 -20 -5 -40 39 -65 50 -28 66
-55 51 -87 -14 -31 -56 -47 -98 -39 -49 9 -40 23 15 22 44 -2 47 0 47 22 0 17
-13 33 -45 56 -33 23 -46 39 -48 60 -5 40 20 55 90 55 l57 0 11 -42z m-474
-76 c13 -9 18 -102 6 -102 -5 0 -12 13 -15 29 -3 16 -9 40 -13 55 -6 26 1 32
22 18z m689 -160 c-49 -8 -50 -13 -10 -47 34 -28 38 -36 29 -52 -13 -21 -61
-30 -77 -14 -8 8 -3 10 21 5 28 -6 32 -4 32 15 0 13 -10 26 -24 33 -59 26 -34
85 29 69 l20 -5 -20 -4z m-673 -49 c3 -51 6 -58 25 -61 23 -3 26 4 36 93 2 17
5 5 6 -26 1 -59 -10 -79 -44 -79 -32 0 -45 20 -45 71 0 29 -5 49 -12 52 -7 3
-3 6 9 6 20 1 22 -5 25 -56z m150 12 c12 -25 26 -45 31 -45 5 0 7 6 4 13 -3 8
-2 29 3 48 7 29 8 23 9 -33 1 -39 -3 -68 -9 -68 -5 0 -23 24 -40 53 l-30 52 0
-52 c0 -76 -18 -65 -22 12 -3 57 -1 65 15 65 11 0 26 -17 39 -45z m101 33 c8
-24 1 -112 -10 -115 -7 -3 -12 20 -15 61 -2 45 1 66 8 66 7 0 14 -6 17 -12z
m67 -43 l17 -50 17 53 c10 28 22 52 26 52 12 0 -35 -123 -48 -128 -5 -1 -18
21 -27 50 -10 29 -23 59 -29 67 -8 10 -6 13 8 10 13 -3 25 -21 36 -54z m160
46 c0 -4 -11 -6 -25 -3 -21 4 -25 1 -25 -21 0 -20 4 -24 20 -20 14 4 20 0 20
-10 0 -10 -6 -13 -20 -10 -16 4 -20 0 -20 -22 0 -25 2 -27 30 -21 19 3 29 2
25 -4 -3 -6 -21 -10 -40 -10 l-33 0 -4 65 -3 65 38 0 c20 0 37 -4 37 -9z m108
-20 c2 -13 -2 -27 -8 -31 -9 -5 -8 -15 4 -39 21 -40 1 -42 -22 -1 -22 38 -32
38 -32 0 0 -59 -18 -29 -22 35 l-3 66 40 -3 c34 -3 41 -7 43 -27z m152 -36 c0
-37 -4 -65 -10 -65 -6 0 -10 26 -10 59 0 38 -4 61 -12 64 -7 3 -3 6 10 6 21 1
22 -3 22 -64z m162 40 c14 -32 22 -31 37 1 6 15 14 24 18 21 3 -4 -2 -18 -11
-31 -9 -14 -16 -41 -16 -61 0 -24 -4 -35 -15 -35 -11 0 -15 11 -15 38 -1 45
-21 75 -55 79 -24 4 -25 2 -25 -57 0 -33 -4 -60 -10 -60 -6 0 -10 27 -10 61 0
56 -2 61 -20 56 -11 -3 -20 -1 -20 4 0 5 29 9 65 9 60 0 66 -2 77 -25z"/>
<path d="M900 770 c0 -36 3 -40 25 -40 18 0 26 7 31 25 9 36 -2 55 -31 55 -23
0 -25 -4 -25 -40z"/>
<path d="M700 524 c0 -33 33 -30 38 4 3 17 -2 22 -17 22 -16 0 -21 -6 -21 -26z"/>
</g>
</svg>
